<?xml version="1.0" encoding="UTF-8" standalone="no"?>
<svg width="204px" height="47px" viewBox="0 0 204 47" version="1.1" xmlns="http://www.w3.org/2000/svg" xmlns:xlink="http://www.w3.org/1999/xlink" xmlns:sketch="http://www.bohemiancoding.com/sketch/ns">
    <!-- Generator: Sketch 3.1.1 (8761) - http://www.bohemiancoding.com/sketch -->
    <title>brand</title>
    <desc>Created with Sketch.</desc>
    <defs></defs>
    <g id="Style-Guide" stroke="none" stroke-width="1" fill="none" fill-rule="evenodd" sketch:type="MSPage">
        <g id="Styles-2" sketch:type="MSArtboardGroup" transform="translate(-482.000000, -2200.000000)">
            <g id="brand" sketch:type="MSLayerGroup" transform="translate(482.000000, 2200.000000)">
                <g id="Rectangle-64-+-alpha-2" transform="translate(159.000000, 0.000000)" sketch:type="MSShapeGroup">
                    <path d="M0,0 L0,22 L0,40.4589844 L15.7519531,22 L44.7910156,22 L44.7910156,0 L0,0 Z" id="Rectangle-64" stroke="#2778BA" fill="#FFFFFF"></path>
                    <path d="M13.109375,15 L12.9628906,13.9921875 L12.9160156,13.9921875 C12.5957015,14.4023458 12.2666033,14.692382 11.9287109,14.8623047 C11.5908186,15.0322274 11.1914086,15.1171875 10.7304688,15.1171875 C10.1054656,15.1171875 9.61914236,14.9570329 9.27148438,14.6367188 C8.92382639,14.3164046 8.75,13.8730497 8.75,13.3066406 C8.75,12.6855438 9.00878647,12.2031267 9.52636719,11.859375 C10.0439479,11.5156233 10.7929638,11.3339845 11.7734375,11.3144531 L12.9863281,11.2792969 L12.9863281,10.8574219 C12.9863281,10.2519501 12.8632825,9.79492342 12.6171875,9.48632812 C12.3710925,9.17773283 11.9746121,9.0234375 11.4277344,9.0234375 C10.8378877,9.0234375 10.2265657,9.18749836 9.59375,9.515625 L9.37695312,9.01171875 C10.0761754,8.68359211 10.7675747,8.51953125 11.4511719,8.51953125 C12.1503941,8.51953125 12.6728498,8.70117006 13.0185547,9.06445312 C13.3642595,9.42773619 13.5371094,9.99413678 13.5371094,10.7636719 L13.5371094,15 L13.109375,15 Z M10.765625,14.5898438 C11.4453159,14.5898438 11.9814433,14.3955098 12.3740234,14.0068359 C12.7666035,13.6181621 12.9628906,13.0781285 12.9628906,12.3867188 L12.9628906,11.7597656 L11.8496094,11.8066406 C10.9550737,11.8496096 10.3173847,11.9892566 9.93652344,12.2255859 C9.55566216,12.4619152 9.36523438,12.8300756 9.36523438,13.3300781 C9.36523438,13.7285176 9.48730347,14.0380848 9.73144531,14.2587891 C9.97558716,14.4794933 10.3203103,14.5898438 10.765625,14.5898438 L10.765625,14.5898438 Z M16.1796875,15 L15.5996094,15 L15.5996094,5.8828125 L16.1796875,5.8828125 L16.1796875,15 Z M21.0371094,15.1171875 C20.0566357,15.1171875 19.3417991,14.7500037 18.8925781,14.015625 L18.8515625,14.015625 L18.8691406,14.5078125 C18.8847657,14.7968764 18.8925781,15.1132795 18.8925781,15.4570312 L18.8925781,17.8828125 L18.3125,17.8828125 L18.3125,8.63085938 L18.8046875,8.63085938 L18.9160156,9.5390625 L18.9511719,9.5390625 C19.3886741,8.85155906 20.0878858,8.5078125 21.0488281,8.5078125 C21.9082074,8.5078125 22.5634743,8.79003624 23.0146484,9.35449219 C23.4658226,9.91894813 23.6914062,10.740229 23.6914062,11.8183594 C23.6914062,12.8652396 23.4541039,13.6767549 22.9794922,14.2529297 C22.5048804,14.8291044 21.857426,15.1171875 21.0371094,15.1171875 L21.0371094,15.1171875 Z M21.0253906,14.6015625 C21.6777376,14.6015625 22.1826154,14.3593774 22.5400391,13.875 C22.8974627,13.3906226 23.0761719,12.712895 23.0761719,11.8417969 C23.0761719,9.97069377 22.4003974,9.03515625 21.0488281,9.03515625 C20.3066369,9.03515625 19.7617205,9.23925577 19.4140625,9.64746094 C19.0664045,10.0556661 18.8925781,10.7206985 18.8925781,11.6425781 L18.8925781,11.8300781 C18.8925781,12.8261769 19.0595686,13.5371072 19.3935547,13.9628906 C19.7275407,14.388674 20.2714806,14.6015625 21.0253906,14.6015625 L21.0253906,14.6015625 Z M29.8964844,15 L29.8964844,10.8691406 C29.8964844,10.2285124 29.7617201,9.76269677 29.4921875,9.47167969 C29.2226549,9.18066261 28.8046903,9.03515625 28.2382812,9.03515625 C27.4765587,9.03515625 26.9189471,9.22753714 26.5654297,9.61230469 C26.2119123,9.99707224 26.0351562,10.6210894 26.0351562,11.484375 L26.0351562,15 L25.4550781,15 L25.4550781,5.8828125 L26.0351562,5.8828125 L26.0351562,8.78320312 L26.0058594,9.59765625 L26.046875,9.59765625 C26.2851574,9.21484184 26.5859357,8.93750086 26.9492188,8.765625 C27.3125018,8.59374914 27.7636692,8.5078125 28.3027344,8.5078125 C29.7480541,8.5078125 30.4707031,9.28319537 30.4707031,10.8339844 L30.4707031,15 L29.8964844,15 Z M36.4003906,15 L36.2539062,13.9921875 L36.2070312,13.9921875 C35.8867171,14.4023458 35.5576189,14.692382 35.2197266,14.8623047 C34.8818342,15.0322274 34.4824242,15.1171875 34.0214844,15.1171875 C33.3964813,15.1171875 32.910158,14.9570329 32.5625,14.6367188 C32.214842,14.3164046 32.0410156,13.8730497 32.0410156,13.3066406 C32.0410156,12.6855438 32.2998021,12.2031267 32.8173828,11.859375 C33.3349635,11.5156233 34.0839795,11.3339845 35.0644531,11.3144531 L36.2773438,11.2792969 L36.2773438,10.8574219 C36.2773438,10.2519501 36.1542981,9.79492342 35.9082031,9.48632812 C35.6621081,9.17773283 35.2656277,9.0234375 34.71875,9.0234375 C34.1289033,9.0234375 33.5175813,9.18749836 32.8847656,9.515625 L32.6679688,9.01171875 C33.367191,8.68359211 34.0585903,8.51953125 34.7421875,8.51953125 C35.4414097,8.51953125 35.9638655,8.70117006 36.3095703,9.06445312 C36.6552752,9.42773619 36.828125,9.99413678 36.828125,10.7636719 L36.828125,15 L36.4003906,15 Z M34.0566406,14.5898438 C34.7363315,14.5898438 35.272459,14.3955098 35.6650391,14.0068359 C36.0576192,13.6181621 36.2539062,13.0781285 36.2539062,12.3867188 L36.2539062,11.7597656 L35.140625,11.8066406 C34.2460893,11.8496096 33.6084003,11.9892566 33.2275391,12.2255859 C32.8466778,12.4619152 32.65625,12.8300756 32.65625,13.3300781 C32.65625,13.7285176 32.7783191,14.0380848 33.0224609,14.2587891 C33.2666028,14.4794933 33.6113259,14.5898438 34.0566406,14.5898438 L34.0566406,14.5898438 Z" id="alpha" fill="#2778BA"></path>
                </g>
                <path d="M23.2421875,25.1152344 C23.2421875,29.1933798 22.2226664,32.4189334 20.1835938,34.7919922 C18.1445211,37.1650509 15.3320492,38.3515625 11.7460938,38.3515625 C8.17185713,38.3515625 5.36524457,37.1650509 3.32617188,34.7919922 C1.28709918,32.4189334 0.267578125,29.1816611 0.267578125,25.0800781 C0.267578125,20.9902139 1.29588815,17.7705196 3.35253906,15.4208984 C5.40918997,13.0712773 8.21873219,11.8964844 11.78125,11.8964844 C15.3672054,11.8964844 18.173818,13.0771366 20.2011719,15.4384766 C22.2285258,17.7998165 23.2421875,21.0253702 23.2421875,25.1152344 L23.2421875,25.1152344 Z M2.21875,25.1152344 C2.21875,28.7949403 3.0390543,31.6396384 4.6796875,33.6494141 C6.3203207,35.6591897 8.6757659,36.6640625 11.7460938,36.6640625 C14.8398592,36.6640625 17.2040934,35.6679787 18.8388672,33.6757812 C20.473641,31.6835838 21.2910156,28.8300967 21.2910156,25.1152344 C21.2910156,21.4120909 20.473641,18.5732521 18.8388672,16.5986328 C17.2040934,14.6240136 14.8515779,13.6367188 11.78125,13.6367188 C8.72264096,13.6367188 6.3642661,14.6328025 4.70605469,16.625 C3.04784327,18.6171975 2.21875,21.4472473 2.21875,25.1152344 L2.21875,25.1152344 Z M36.8828125,38.3515625 C33.9413915,38.3515625 31.7968817,37.250011 30.4492188,35.046875 L30.3261719,35.046875 L30.3789062,36.5234375 C30.4257815,37.3906293 30.4492188,38.3398386 30.4492188,39.3710938 L30.4492188,46.6484375 L28.7089844,46.6484375 L28.7089844,18.8925781 L30.1855469,18.8925781 L30.5195312,21.6171875 L30.625,21.6171875 C31.9375066,19.5546772 34.0351418,18.5234375 36.9179688,18.5234375 C39.4961066,18.5234375 41.4619073,19.3701087 42.8154297,21.0634766 C44.1689521,22.7568444 44.8457031,25.220687 44.8457031,28.4550781 C44.8457031,31.5957188 44.1337962,34.0302648 42.7099609,35.7587891 C41.2861257,37.4873133 39.3437623,38.3515625 36.8828125,38.3515625 L36.8828125,38.3515625 Z M36.8476562,36.8046875 C38.8046973,36.8046875 40.3193306,36.0781323 41.3916016,34.625 C42.4638725,33.1718677 43,31.1386849 43,28.5253906 C43,22.9120813 40.9726765,20.1054688 36.9179688,20.1054688 C34.6913951,20.1054688 33.0566458,20.7177673 32.0136719,21.9423828 C30.9706979,23.1669983 30.4492188,25.1620955 30.4492188,27.9277344 L30.4492188,28.4902344 C30.4492188,31.4785306 30.9501903,33.6113217 31.9521484,34.8886719 C32.9541066,36.166022 34.5859262,36.8046875 36.8476562,36.8046875 L36.8476562,36.8046875 Z M57.8535156,38.3515625 C55.076158,38.3515625 52.9111406,37.4961023 51.3583984,35.7851562 C49.8056563,34.0742102 49.0292969,31.6777498 49.0292969,28.5957031 C49.0292969,25.5488129 49.7792894,23.1084076 51.2792969,21.2744141 C52.7793044,19.4404205 54.8007685,18.5234375 57.34375,18.5234375 C59.5937613,18.5234375 61.3691341,19.3085859 62.6699219,20.8789062 C63.9707096,22.4492266 64.6210938,24.5820178 64.6210938,27.2773438 L64.6210938,28.6835938 L50.8574219,28.6835938 C50.8808595,31.3086069 51.4931581,33.3124931 52.6943359,34.6953125 C53.8955138,36.0781319 55.6152232,36.7695312 57.8535156,36.7695312 C58.9433648,36.7695312 59.9013631,36.6933601 60.7275391,36.5410156 C61.5537151,36.3886711 62.599603,36.0605494 63.8652344,35.5566406 L63.8652344,37.1386719 C62.787104,37.6074242 61.7910202,37.926757 60.8769531,38.0966797 C59.9628861,38.2666024 58.9550836,38.3515625 57.8535156,38.3515625 L57.8535156,38.3515625 Z M57.34375,20.0703125 C55.5038971,20.0703125 54.0273493,20.6767517 52.9140625,21.8896484 C51.8007757,23.1025451 51.1503916,24.8515511 50.9628906,27.1367188 L62.7753906,27.1367188 C62.7753906,24.9218639 62.2949267,23.1904359 61.3339844,21.9423828 C60.3730421,20.6943297 59.0429772,20.0703125 57.34375,20.0703125 L57.34375,20.0703125 Z M83.21875,38 L83.21875,25.6074219 C83.21875,23.6855373 82.8144572,22.2880903 82.0058594,21.4150391 C81.1972616,20.5419878 79.9433679,20.1054688 78.2441406,20.1054688 C75.9589729,20.1054688 74.2861381,20.6826114 73.2255859,21.8369141 C72.1650338,22.9912167 71.6347656,24.8632683 71.6347656,27.453125 L71.6347656,38 L69.8945312,38 L69.8945312,18.8925781 L71.3710938,18.8925781 L71.7050781,21.5117188 L71.8105469,21.5117188 C73.0527406,19.5195213 75.2617029,18.5234375 78.4375,18.5234375 C82.7734592,18.5234375 84.9414062,20.8495861 84.9414062,25.5019531 L84.9414062,38 L83.21875,38 Z" id="OpenFEC" fill="#2778BA" sketch:type="MSShapeGroup"></path>
                <path d="M93.3613281,38 L91.5683594,38 L91.5683594,12.3007812 L105.648438,12.3007812 L105.648438,13.953125 L93.3613281,13.953125 L93.3613281,24.8515625 L104.962891,24.8515625 L104.962891,26.5214844 L93.3613281,26.5214844 L93.3613281,38 Z" id="Path" fill="#DB4857" sketch:type="MSShapeGroup"></path>
                <path d="M123.683594,38 L109.638672,38 L109.638672,12.3007812 L123.683594,12.3007812 L123.683594,13.953125 L111.431641,13.953125 L111.431641,23.6738281 L122.998047,23.6738281 L122.998047,25.3261719 L111.431641,25.3261719 L111.431641,36.3476562 L123.683594,36.3476562 L123.683594,38 Z" id="Path" fill="#DB4857" sketch:type="MSShapeGroup"></path>
                <path d="M132.859375,16.6425781 C131.007803,18.7050884 130.082031,21.5292789 130.082031,25.1152344 C130.082031,28.7832215 130.955069,31.6308492 132.701172,33.6582031 C134.447274,35.685557 136.943343,36.6992188 140.189453,36.6992188 C142.345714,36.6992188 144.326163,36.4238309 146.130859,35.8730469 L146.130859,37.4550781 C144.431632,38.0527374 142.31056,38.3515625 139.767578,38.3515625 C136.158185,38.3515625 133.316417,37.1855585 131.242188,34.8535156 C129.167958,32.5214727 128.130859,29.2636928 128.130859,25.0800781 C128.130859,22.4667838 128.625972,20.1640725 129.616211,18.171875 C130.60645,16.1796775 132.030264,14.641607 133.887695,13.5576172 C135.745126,12.4736274 137.904285,11.9316406 140.365234,11.9316406 C142.873059,11.9316406 145.117178,12.4003859 147.097656,13.3378906 L146.376953,14.9550781 C144.501944,14.0175734 142.533213,13.5488281 140.470703,13.5488281 C137.248031,13.5488281 134.710947,14.5800678 132.859375,16.6425781 Z" id="Path" fill="#DB4857" sketch:type="MSShapeGroup"></path>
            </g>
        </g>
    </g>
</svg>