<?xml version="1.0" encoding="UTF-8" standalone="no"?>
<svg width="29px" height="30px" viewBox="0 0 29 30" version="1.1" xmlns="http://www.w3.org/2000/svg" xmlns:xlink="http://www.w3.org/1999/xlink" xmlns:sketch="http://www.bohemiancoding.com/sketch/ns">
    <!-- Generator: Sketch 3.3.3 (12081) - http://www.bohemiancoding.com/sketch -->
    <title>i-arrow-right--secondary-contrast</title>
    <desc>Created with Sketch.</desc>
    <defs></defs>
    <g id="Page-1" stroke="none" stroke-width="1" fill="none" fill-rule="evenodd" sketch:type="MSPage">
        <g id="Simple-Copy" sketch:type="MSArtboardGroup" transform="translate(-497.000000, -868.000000)" fill="#F77B42">
            <path d="M511.723077,897.276923 C503.8382,897.276923 497.446154,890.884877 497.446154,883 C497.446154,875.115123 503.8382,868.723077 511.723077,868.723077 C519.607954,868.723077 526,875.115123 526,883 C526,890.884877 519.607954,897.276923 511.723077,897.276923 L511.723077,897.276923 Z M516.733385,885.233892 L512.718,889.695431 L512.714431,889.692308 C512.469492,889.964462 512.117923,890.138462 511.723077,890.138462 C511.328231,890.138462 510.976662,889.964462 510.731723,889.692308 L510.728154,889.695431 L506.712769,885.233892 L506.716338,885.230769 C506.503077,884.993415 506.369231,884.682892 506.369231,884.338462 C506.369231,883.599631 506.968415,883 507.707692,883 C508.102538,883 508.454108,883.174446 508.699046,883.4466 L508.702615,883.443031 L510.384615,885.311969 L510.384615,877.2 C510.384615,876.460723 510.9838,875.861538 511.723077,875.861538 C512.462354,875.861538 513.061538,876.460723 513.061538,877.2 L513.061538,885.311969 L514.743538,883.443031 L514.747108,883.4466 C514.992046,883.174446 515.343615,883 515.738462,883 C516.477738,883 517.076923,883.599631 517.076923,884.338462 C517.076923,884.682892 516.943077,884.993415 516.729815,885.230769 L516.733385,885.233892 L516.733385,885.233892 Z" id="i-arrow-right--secondary-contrast" sketch:type="MSShapeGroup" transform="translate(511.723077, 883.000000) rotate(-90.000000) translate(-511.723077, -883.000000) "></path>
        </g>
    </g>
</svg>