<?xml version="1.0" encoding="UTF-8" standalone="no"?>
<svg width="29px" height="30px" viewBox="0 0 29 30" version="1.1" xmlns="http://www.w3.org/2000/svg" xmlns:xlink="http://www.w3.org/1999/xlink" xmlns:sketch="http://www.bohemiancoding.com/sketch/ns">
    <!-- Generator: Sketch 3.3.3 (12081) - http://www.bohemiancoding.com/sketch -->
    <title>i-arrow-right--primary-contrast</title>
    <desc>Created with Sketch.</desc>
    <defs></defs>
    <g id="Page-1" stroke="none" stroke-width="1" fill="none" fill-rule="evenodd" sketch:type="MSPage">
        <g id="Simple-Copy" sketch:type="MSArtboardGroup" transform="translate(-446.000000, -868.000000)" fill="#36BDBB">
            <path d="M460.276923,897.276923 C452.392046,897.276923 446,890.884877 446,883 C446,875.115123 452.392046,868.723077 460.276923,868.723077 C468.1618,868.723077 474.553846,875.115123 474.553846,883 C474.553846,890.884877 468.1618,897.276923 460.276923,897.276923 L460.276923,897.276923 Z M465.287231,885.233892 L461.271846,889.695431 L461.268277,889.692308 C461.023338,889.964462 460.671769,890.138462 460.276923,890.138462 C459.882077,890.138462 459.530508,889.964462 459.285569,889.692308 L459.282,889.695431 L455.266615,885.233892 L455.270185,885.230769 C455.056923,884.993415 454.923077,884.682892 454.923077,884.338462 C454.923077,883.599631 455.522262,883 456.261538,883 C456.656385,883 457.007954,883.174446 457.252892,883.4466 L457.256462,883.443031 L458.938462,885.311969 L458.938462,877.2 C458.938462,876.460723 459.537646,875.861538 460.276923,875.861538 C461.0162,875.861538 461.615385,876.460723 461.615385,877.2 L461.615385,885.311969 L463.297385,883.443031 L463.300954,883.4466 C463.545892,883.174446 463.897462,883 464.292308,883 C465.031585,883 465.630769,883.599631 465.630769,884.338462 C465.630769,884.682892 465.496923,884.993415 465.283662,885.230769 L465.287231,885.233892 L465.287231,885.233892 Z" id="i-arrow-right--primary-contrast" sketch:type="MSShapeGroup" transform="translate(460.276923, 883.000000) rotate(-90.000000) translate(-460.276923, -883.000000) "></path>
        </g>
    </g>
</svg>