<?xml version="1.0" encoding="UTF-8" standalone="no"?>
<svg width="29px" height="30px" viewBox="0 0 29 30" version="1.1" xmlns="http://www.w3.org/2000/svg" xmlns:xlink="http://www.w3.org/1999/xlink" xmlns:sketch="http://www.bohemiancoding.com/sketch/ns">
    <!-- Generator: Sketch 3.3.3 (12081) - http://www.bohemiancoding.com/sketch -->
    <title>i-arrow-right--neutral-contrast</title>
    <desc>Created with Sketch.</desc>
    <defs></defs>
    <g id="Page-1" stroke="none" stroke-width="1" fill="none" fill-rule="evenodd" sketch:type="MSPage">
        <g id="Simple-Copy" sketch:type="MSArtboardGroup" transform="translate(-387.000000, -868.000000)" fill="#CEB59C">
            <path d="M401.723077,897.276923 C393.8382,897.276923 387.446154,890.884877 387.446154,883 C387.446154,875.115123 393.8382,868.723077 401.723077,868.723077 C409.607954,868.723077 416,875.115123 416,883 C416,890.884877 409.607954,897.276923 401.723077,897.276923 L401.723077,897.276923 Z M406.733385,885.233892 L402.718,889.695431 L402.714431,889.692308 C402.469492,889.964462 402.117923,890.138462 401.723077,890.138462 C401.328231,890.138462 400.976662,889.964462 400.731723,889.692308 L400.728154,889.695431 L396.712769,885.233892 L396.716338,885.230769 C396.503077,884.993415 396.369231,884.682892 396.369231,884.338462 C396.369231,883.599631 396.968415,883 397.707692,883 C398.102538,883 398.454108,883.174446 398.699046,883.4466 L398.702615,883.443031 L400.384615,885.311969 L400.384615,877.2 C400.384615,876.460723 400.9838,875.861538 401.723077,875.861538 C402.462354,875.861538 403.061538,876.460723 403.061538,877.2 L403.061538,885.311969 L404.743538,883.443031 L404.747108,883.4466 C404.992046,883.174446 405.343615,883 405.738462,883 C406.477738,883 407.076923,883.599631 407.076923,884.338462 C407.076923,884.682892 406.943077,884.993415 406.729815,885.230769 L406.733385,885.233892 L406.733385,885.233892 Z" id="i-arrow-right--neutral-contrast" sketch:type="MSShapeGroup" transform="translate(401.723077, 883.000000) rotate(-90.000000) translate(-401.723077, -883.000000) "></path>
        </g>
    </g>
</svg>