<?xml version="1.0" encoding="UTF-8" standalone="no"?>
<svg width="98px" height="98px" viewBox="0 0 98 98" version="1.1" xmlns="http://www.w3.org/2000/svg" xmlns:xlink="http://www.w3.org/1999/xlink" xmlns:sketch="http://www.bohemiancoding.com/sketch/ns">
    <!-- Generator: Sketch 3.3.3 (12081) - http://www.bohemiancoding.com/sketch -->
    <title>i-committee</title>
    <desc>Created with Sketch.</desc>
    <defs>
        <ellipse id="path-1" cx="49.1666667" cy="49.2753623" rx="48.4436275" ry="48.5507246"></ellipse>
    </defs>
    <g id="OpenFec-Pages-Styled" stroke="none" stroke-width="1" fill="none" fill-rule="evenodd" sketch:type="MSPage">
        <g id="Data-Home-2" sketch:type="MSArtboardGroup" transform="translate(-122.000000, -1054.000000)">
            <g id="i-committee" sketch:type="MSLayerGroup" transform="translate(121.263583, 1053.013583)">
                <g id="Group-Copy-2" transform="translate(0.000000, 0.744323)">
                    <g transform="translate(0.833333, 0.000000)" id="Group">
                        <g>
                            <mask id="mask-2" sketch:name="Mask" fill="white">
                                <use xlink:href="#path-1"></use>
                            </mask>
                            <use id="Mask" fill="#022C53" sketch:type="MSShapeGroup" xlink:href="#path-1"></use>
                            <g mask="url(#mask-2)" stroke-linecap="round" stroke-dasharray="0.25,4" stroke-linejoin="round">
                                <g transform="translate(-60.735294, -23.188406)">
                                    <g>
                                        <path d="M67.7811255,0 L1.10997817,144.020324" id="Line-Copy-20" stroke="#006A7F" stroke-width="1.5" sketch:type="MSShapeGroup"></path>
                                        <path d="M79.6720649,0 L13.0009176,144.020324" id="Line-Copy-21" stroke="#006A7F" stroke-width="1.5" sketch:type="MSShapeGroup"></path>
                                        <path d="M90.394382,0 L23.7232347,144.020324" id="Line-Copy-22" stroke="#006A7F" stroke-width="1.5" sketch:type="MSShapeGroup"></path>
                                        <path d="M101.116699,0 L34.4455518,144.020324" id="Line-Copy-23" stroke="#006A7F" stroke-width="1.5" sketch:type="MSShapeGroup"></path>
                                        <path d="M111.839016,0 L45.1678689,144.020324" id="Line-Copy-24" stroke="#006A7F" stroke-width="1.5" sketch:type="MSShapeGroup"></path>
                                        <path d="M122.561333,0 L55.8901861,144.020324" id="Line-Copy-25" stroke="#006A7F" stroke-width="1.5" sketch:type="MSShapeGroup"></path>
                                        <path d="M133.28365,0 L66.6125032,144.020324" id="Line-Copy-26" stroke="#006A7F" stroke-width="1.5" sketch:type="MSShapeGroup"></path>
                                        <path d="M144.005968,0 L77.3348203,144.020324" id="Line-Copy-27" stroke="#006A7F" stroke-width="1.5" sketch:type="MSShapeGroup"></path>
                                        <path d="M154.728285,0 L88.0571374,144.020324" id="Line-Copy-28" stroke="#006A7F" stroke-width="1.5" sketch:type="MSShapeGroup"></path>
                                        <path d="M165.450602,0 L98.7794545,144.020324" id="Line-Copy-29" stroke="#006A7F" stroke-width="1.5" sketch:type="MSShapeGroup"></path>
                                        <path d="M176.172919,0 L109.501772,144.020324" id="Line-Copy-30" stroke="#006A7F" stroke-width="1.5" sketch:type="MSShapeGroup"></path>
                                        <path d="M186.895236,0 L120.224089,144.020324" id="Line-Copy-31" stroke="#006A7F" stroke-width="1.5" sketch:type="MSShapeGroup"></path>
                                        <path d="M197.617553,0 L130.946406,144.020324" id="Line-Copy-32" stroke="#006A7F" stroke-width="1.5" sketch:type="MSShapeGroup"></path>
                                        <path d="M208.33987,0 L141.668723,144.020324" id="Line-Copy-33" stroke="#006A7F" stroke-width="1.5" sketch:type="MSShapeGroup"></path>
                                        <path d="M219.062187,0 L152.39104,144.020324" id="Line-Copy-34" stroke="#006A7F" stroke-width="1.5" sketch:type="MSShapeGroup"></path>
                                    </g>
                                </g>
                            </g>
                        </g>
                    </g>
                </g>
                <g id="Group-Copy-14" transform="translate(50.342634, 51.126327) scale(-1, 1) translate(-50.342634, -51.126327) translate(17.009300, 17.068356)" fill="#DD3900" sketch:type="MSShapeGroup">
                    <path d="M54.8364197,17.1393669 C54.8364197,19.8245883 52.6849707,21.9990474 50.0306175,21.9990474 C47.373811,21.9990474 45.2223621,19.8245883 45.2223621,17.1393669 C45.2223621,14.4566248 47.373811,12.2796863 50.0306175,12.2796863 C52.6849707,12.2796863 54.8364197,14.4566248 54.8364197,17.1393669" id="Fill-2"></path>
                    <path d="M43.7578067,17.1393669 C43.7578067,19.8245883 41.6063578,21.9990474 38.9495514,21.9990474 C36.2951981,21.9990474 34.1437492,19.8245883 34.1437492,17.1393669 C34.1437492,14.4566248 36.2951981,12.2796863 38.9495514,12.2796863 C41.6063578,12.2796863 43.7578067,14.4566248 43.7578067,17.1393669" id="Fill-3"></path>
                    <path d="M32.6791938,17.1393669 C32.6791938,19.8245883 30.5277449,21.9990474 27.8709385,21.9990474 C25.2165852,21.9990474 23.0651363,19.8245883 23.0651363,17.1393669 C23.0651363,14.4566248 25.2165852,12.2796863 27.8709385,12.2796863 C30.5277449,12.2796863 32.6791938,14.4566248 32.6791938,17.1393669" id="Fill-4"></path>
                    <path d="M21.6005809,17.1393669 C21.6005809,19.8245883 19.449132,21.9990474 16.7923255,21.9990474 C14.1379723,21.9990474 11.9865234,19.8245883 11.9865234,17.1393669 C11.9865234,14.4566248 14.1379723,12.2796863 16.7923255,12.2796863 C19.449132,12.2796863 21.6005809,14.4566248 21.6005809,17.1393669" id="Fill-5"></path>
                    <path d="M54.8364197,50.7802577 C54.8364197,53.4654792 52.6849707,55.6399383 50.0306175,55.6399383 C47.373811,55.6399383 45.2223621,53.4654792 45.2223621,50.7802577 C45.2223621,48.0975157 47.373811,45.9205771 50.0306175,45.9205771 C52.6849707,45.9205771 54.8364197,48.0975157 54.8364197,50.7802577" id="Fill-6"></path>
                    <path d="M43.7578067,50.7802577 C43.7578067,53.4654792 41.6063578,55.6399383 38.9495514,55.6399383 C36.2951981,55.6399383 34.1437492,53.4654792 34.1437492,50.7802577 C34.1437492,48.0975157 36.2951981,45.9205771 38.9495514,45.9205771 C41.6063578,45.9205771 43.7578067,48.0975157 43.7578067,50.7802577" id="Fill-7"></path>
                    <path d="M32.6791938,50.7802577 C32.6791938,53.4654792 30.5277449,55.6399383 27.8709385,55.6399383 C25.2165852,55.6399383 23.0651363,53.4654792 23.0651363,50.7802577 C23.0651363,48.0975157 25.2165852,45.9205771 27.8709385,45.9205771 C30.5277449,45.9205771 32.6791938,48.0975157 32.6791938,50.7802577" id="Fill-8"></path>
                    <path d="M21.6005809,50.7802577 C21.6005809,53.4654792 19.449132,55.6399383 16.7923255,55.6399383 C14.1379723,55.6399383 11.9865234,53.4654792 11.9865234,50.7802577 C11.9865234,48.0975157 14.1379723,45.9205771 16.7923255,45.9205771 C19.449132,45.9205771 21.6005809,48.0975157 21.6005809,50.7802577" id="Fill-9"></path>
                    <path d="M54.8364197,39.5831569 C54.8364197,42.265899 52.6849707,44.4428375 50.0306175,44.4428375 C47.373811,44.4428375 45.2223621,42.265899 45.2223621,39.5831569 C45.2223621,36.9004149 47.373811,34.7234764 50.0306175,34.7234764 C52.6849707,34.7234764 54.8364197,36.9004149 54.8364197,39.5831569" id="Fill-10"></path>
                    <path d="M21.6005809,39.5831569 C21.6005809,42.265899 19.449132,44.4428375 16.7923255,44.4428375 C14.1379723,44.4428375 11.9865234,42.265899 11.9865234,39.5831569 C11.9865234,36.9004149 14.1379723,34.7234764 16.7923255,34.7234764 C19.449132,34.7234764 21.6005809,36.9004149 21.6005809,39.5831569" id="Fill-11"></path>
                    <path d="M54.8364197,28.1802636 C54.8364197,30.8630056 52.6849707,33.0399442 50.0306175,33.0399442 C47.373811,33.0399442 45.2223621,30.8630056 45.2223621,28.1802636 C45.2223621,25.4975216 47.373811,23.320583 50.0306175,23.320583 C52.6849707,23.320583 54.8364197,25.4975216 54.8364197,28.1802636" id="Fill-12"></path>
                    <path d="M65.9150326,39.5831569 C65.9150326,42.265899 63.7635836,44.4428375 61.1092304,44.4428375 C58.452424,44.4428375 56.300975,42.265899 56.300975,39.5831569 C56.300975,36.9004149 58.452424,34.7234764 61.1092304,34.7234764 C63.7635836,34.7234764 65.9150326,36.9004149 65.9150326,39.5831569" id="Fill-13"></path>
                    <path d="M65.9150326,28.1802636 C65.9150326,30.8630056 63.7635836,33.0399442 61.1092304,33.0399442 C58.452424,33.0399442 56.300975,30.8630056 56.300975,28.1802636 C56.300975,25.4975216 58.452424,23.320583 61.1092304,23.320583 C63.7635836,23.320583 65.9150326,25.4975216 65.9150326,28.1802636" id="Fill-14"></path>
                    <path d="M43.7578067,6.09847014 C43.7578067,8.7836916 41.6063578,10.9581507 38.9495514,10.9581507 C36.2951981,10.9581507 34.1437492,8.7836916 34.1437492,6.09847014 C34.1437492,3.41572811 36.2951981,1.23878957 38.9495514,1.23878957 C41.6063578,1.23878957 43.7578067,3.41572811 43.7578067,6.09847014" id="Fill-15"></path>
                    <path d="M32.6791938,6.09847014 C32.6791938,8.7836916 30.5277449,10.9581507 27.8709385,10.9581507 C25.2165852,10.9581507 23.0651363,8.7836916 23.0651363,6.09847014 C23.0651363,3.41572811 25.2165852,1.23878957 27.8709385,1.23878957 C30.5277449,1.23878957 32.6791938,3.41572811 32.6791938,6.09847014" id="Fill-16"></path>
                    <path d="M43.7578067,62.183151 C43.7578067,64.8683725 41.6063578,67.0428316 38.9495514,67.0428316 C36.2951981,67.0428316 34.1437492,64.8683725 34.1437492,62.183151 C34.1437492,59.500409 36.2951981,57.3234705 38.9495514,57.3234705 C41.6063578,57.3234705 43.7578067,59.500409 43.7578067,62.183151" id="Fill-17"></path>
                    <path d="M32.6791938,62.183151 C32.6791938,64.8683725 30.5277449,67.0428316 27.8709385,67.0428316 C25.2165852,67.0428316 23.0651363,64.8683725 23.0651363,62.183151 C23.0651363,59.500409 25.2165852,57.3234705 27.8709385,57.3234705 C30.5277449,57.3234705 32.6791938,59.500409 32.6791938,62.183151" id="Fill-18"></path>
                    <path d="M21.6005809,28.1802636 C21.6005809,30.8630056 19.449132,33.0399442 16.7923255,33.0399442 C14.1379723,33.0399442 11.9865234,30.8630056 11.9865234,28.1802636 C11.9865234,25.4975216 14.1379723,23.320583 16.7923255,23.320583 C19.449132,23.320583 21.6005809,25.4975216 21.6005809,28.1802636" id="Fill-19"></path>
                    <path d="M10.521968,39.5831569 C10.521968,42.265899 8.37051905,44.4428375 5.71371264,44.4428375 C3.05935941,44.4428375 0.907910446,42.265899 0.907910446,39.5831569 C0.907910446,36.9004149 3.05935941,34.7234764 5.71371264,34.7234764 C8.37051905,34.7234764 10.521968,36.9004149 10.521968,39.5831569" id="Fill-20"></path>
                    <path d="M10.521968,28.1802636 C10.521968,30.8630056 8.37051905,33.0399442 5.71371264,33.0399442 C3.05935941,33.0399442 0.907910446,30.8630056 0.907910446,28.1802636 C0.907910446,25.4975216 3.05935941,23.320583 5.71371264,23.320583 C8.37051905,23.320583 10.521968,25.4975216 10.521968,28.1802636" id="Fill-21"></path>
                </g>
            </g>
        </g>
    </g>
</svg>