<?xml version="1.0" encoding="UTF-8" standalone="no"?>
<svg width="9px" height="9px" viewBox="0 0 9 9" version="1.1" xmlns="http://www.w3.org/2000/svg" xmlns:xlink="http://www.w3.org/1999/xlink" xmlns:sketch="http://www.bohemiancoding.com/sketch/ns">
    <!-- Generator: Sketch 3.3.3 (12081) - http://www.bohemiancoding.com/sketch -->
    <title>i-left-2--primary</title>
    <desc>Created with Sketch.</desc>
    <defs></defs>
    <g id="Page-1" stroke="none" stroke-width="1" fill="none" fill-rule="evenodd" sketch:type="MSPage">
        <g id="Simple-Copy" sketch:type="MSArtboardGroup" transform="translate(-260.000000, -430.000000)">
            <g id="Group-Copy" sketch:type="MSLayerGroup" transform="translate(254.000000, 106.000000)">
                <g id="i-left-2--primary" transform="translate(6.000000, 325.000000)" sketch:type="MSShapeGroup">
                    <g id="Fill-3-Copy-+-Line-Copy" transform="translate(0.000000, 0.323077)">
                        <path d="M0.30275808,3.04702423 L4.81434642,0.407265293 C4.91334873,0.349096631 5.02056699,0.318181818 5.13497421,0.318181818 C5.4753203,0.318181818 5.75117112,0.591330462 5.75117112,0.928342602 L5.75117112,6.21640272 C5.75117112,6.55321148 5.4753203,6.82656351 5.13497421,6.82656351 C5.02056699,6.82656351 4.91334873,6.79544531 4.82153539,6.74154777 C4.81742741,6.73931052 0.30275808,4.0977211 0.30275808,4.0977211 C0.121596189,3.99134973 0,3.7958949 0,3.57237266 C0,3.34864704 0.121596189,3.1531922 0.30275808,3.04702423 L0.30275808,3.04702423 Z" id="Fill-3-Copy" fill="#022C53"></path>
                        <path d="M8.19642857,0.318181818 L8.19642857,6.68181818" id="Line" stroke="#022C53" stroke-width="1.5" stroke-linecap="round" stroke-linejoin="round"></path>
                    </g>
                </g>
            </g>
        </g>
    </g>
</svg>