<?xml version="1.0" encoding="UTF-8" standalone="no"?>
<svg width="99px" height="99px" viewBox="0 0 99 99" version="1.1" xmlns="http://www.w3.org/2000/svg" xmlns:xlink="http://www.w3.org/1999/xlink" xmlns:sketch="http://www.bohemiancoding.com/sketch/ns">
    <!-- Generator: Sketch 3.2.2 (9983) - http://www.bohemiancoding.com/sketch -->
    <title>icon-committee</title>
    <desc>Created with Sketch.</desc>
    <defs></defs>
    <g id="STYLEGUIDE" stroke="none" stroke-width="1" fill="none" fill-rule="evenodd" sketch:type="MSPage">
        <g id="icons" sketch:type="MSArtboardGroup" transform="translate(-293.000000, -357.000000)" fill="#323A45">
            <g id="icon-committee" sketch:type="MSLayerGroup" transform="translate(293.000000, 357.000000)">
                <path d="M50.8351489,18.1554103 C50.8351489,16.8184828 49.751355,15.7346889 48.4144275,15.7346889 C47.0775,15.7346889 45.9937061,16.8184828 45.9937061,18.1554103 C45.9937061,19.4923378 47.0775,20.5761317 48.4144275,20.5761317 C49.751355,20.5761317 50.8351489,19.4923378 50.8351489,18.1554103 Z" id="Oval-8" sketch:type="MSShapeGroup"></path>
                <path d="M73.8320019,26.6279351 C73.8320019,25.2910076 72.7482081,24.2072137 71.4112806,24.2072137 C70.0743531,24.2072137 68.9905592,25.2910076 68.9905592,26.6279351 C68.9905592,27.9648626 70.0743531,29.0486565 71.4112806,29.0486565 C72.7482081,29.0486565 73.8320019,27.9648626 73.8320019,26.6279351 Z" id="Oval-8" sketch:type="MSShapeGroup"></path>
                <path d="M82.3045267,48.4144275 C82.3045267,47.0775 81.2207329,45.9937061 79.8838054,45.9937061 C78.5468779,45.9937061 77.463084,47.0775 77.463084,48.4144275 C77.463084,49.751355 78.5468779,50.8351489 79.8838054,50.8351489 C81.2207329,50.8351489 82.3045267,49.751355 82.3045267,48.4144275 Z" id="Oval-8" sketch:type="MSShapeGroup"></path>
                <path d="M73.8320019,71.4112806 C73.8320019,70.0743531 72.7482081,68.9905592 71.4112806,68.9905592 C70.0743531,68.9905592 68.9905592,70.0743531 68.9905592,71.4112806 C68.9905592,72.7482081 70.0743531,73.8320019 71.4112806,73.8320019 C72.7482081,73.8320019 73.8320019,72.7482081 73.8320019,71.4112806 Z" id="Oval-8" sketch:type="MSShapeGroup"></path>
                <path d="M50.8351489,79.8838054 C50.8351489,78.5468779 49.751355,77.463084 48.4144275,77.463084 C47.0775,77.463084 45.9937061,78.5468779 45.9937061,79.8838054 C45.9937061,81.2207329 47.0775,82.3045267 48.4144275,82.3045267 C49.751355,82.3045267 50.8351489,81.2207329 50.8351489,79.8838054 Z" id="Oval-8" sketch:type="MSShapeGroup"></path>
                <path d="M29.0486565,71.4112806 C29.0486565,70.0743531 27.9648626,68.9905592 26.6279351,68.9905592 C25.2910076,68.9905592 24.2072137,70.0743531 24.2072137,71.4112806 C24.2072137,72.7482081 25.2910076,73.8320019 26.6279351,73.8320019 C27.9648626,73.8320019 29.0486565,72.7482081 29.0486565,71.4112806 Z" id="Oval-8" sketch:type="MSShapeGroup"></path>
                <path d="M20.5761317,48.4144275 C20.5761317,47.0775 19.4923378,45.9937061 18.1554103,45.9937061 C16.8184828,45.9937061 15.7346889,47.0775 15.7346889,48.4144275 C15.7346889,49.751355 16.8184828,50.8351489 18.1554103,50.8351489 C19.4923378,50.8351489 20.5761317,49.751355 20.5761317,48.4144275 Z" id="Oval-8" sketch:type="MSShapeGroup"></path>
                <path d="M29.0486565,26.6279351 C29.0486565,25.2910076 27.9648626,24.2072137 26.6279351,24.2072137 C25.2910076,24.2072137 24.2072137,25.2910076 24.2072137,26.6279351 C24.2072137,27.9648626 25.2910076,29.0486565 26.6279351,29.0486565 C27.9648626,29.0486565 29.0486565,27.9648626 29.0486565,26.6279351 Z" id="Oval-8" sketch:type="MSShapeGroup"></path>
                <path d="M12.1036069,48.4144275 C12.1036069,45.0721088 9.39412218,42.3626241 6.05180344,42.3626241 C2.70948469,42.3626241 0,45.0721088 0,48.4144275 C0,51.7567462 2.70948469,54.4662309 6.05180344,54.4662309 C9.39412218,54.4662309 12.1036069,51.7567462 12.1036069,48.4144275 Z" id="Oval-17" sketch:type="MSShapeGroup"></path>
                <path d="M24.2072137,18.1554103 C24.2072137,14.8130916 21.4977291,12.1036069 18.1554103,12.1036069 C14.8130916,12.1036069 12.1036069,14.8130916 12.1036069,18.1554103 C12.1036069,21.4977291 14.8130916,24.2072137 18.1554103,24.2072137 C21.4977291,24.2072137 24.2072137,21.4977291 24.2072137,18.1554103 Z" id="Oval-20" sketch:type="MSShapeGroup"></path>
                <path d="M98.0392157,48.4144275 C98.0392157,45.0721088 95.329731,42.3626241 91.9874122,42.3626241 C88.6450935,42.3626241 85.9356088,45.0721088 85.9356088,48.4144275 C85.9356088,51.7567462 88.6450935,54.4662309 91.9874122,54.4662309 C95.329731,54.4662309 98.0392157,51.7567462 98.0392157,48.4144275 Z" id="Oval-11" sketch:type="MSShapeGroup"></path>
                <path d="M85.9356088,79.8838054 C85.9356088,76.5414866 83.2261241,73.8320019 79.8838054,73.8320019 C76.5414866,73.8320019 73.8320019,76.5414866 73.8320019,79.8838054 C73.8320019,83.2261241 76.5414866,85.9356088 79.8838054,85.9356088 C83.2261241,85.9356088 85.9356088,83.2261241 85.9356088,79.8838054 Z" id="Oval-12" sketch:type="MSShapeGroup"></path>
                <path d="M54.4662309,91.9874122 C54.4662309,88.6450935 51.7567462,85.9356088 48.4144275,85.9356088 C45.0721088,85.9356088 42.3626241,88.6450935 42.3626241,91.9874122 C42.3626241,95.329731 45.0721088,98.0392157 48.4144275,98.0392157 C51.7567462,98.0392157 54.4662309,95.329731 54.4662309,91.9874122 Z" id="Oval-14" sketch:type="MSShapeGroup"></path>
                <path d="M85.9356088,18.1554103 C85.9356088,14.8130916 83.2261241,12.1036069 79.8838054,12.1036069 C76.5414866,12.1036069 73.8320019,14.8130916 73.8320019,18.1554103 C73.8320019,21.4977291 76.5414866,24.2072137 79.8838054,24.2072137 C83.2261241,24.2072137 85.9356088,21.4977291 85.9356088,18.1554103 Z" id="Oval-10" sketch:type="MSShapeGroup"></path>
                <path d="M24.2072137,79.8838054 C24.2072137,76.5414866 21.4977291,73.8320019 18.1554103,73.8320019 C14.8130916,73.8320019 12.1036069,76.5414866 12.1036069,79.8838054 C12.1036069,83.2261241 14.8130916,85.9356088 18.1554103,85.9356088 C21.4977291,85.9356088 24.2072137,83.2261241 24.2072137,79.8838054 Z" id="Oval-16" sketch:type="MSShapeGroup"></path>
                <path d="M73.8320019,49.0196078 C73.8320019,35.316101 62.7231147,24.2072137 49.0196078,24.2072137 C35.316101,24.2072137 24.2072137,35.316101 24.2072137,49.0196078 C24.2072137,62.7231147 35.316101,73.8320019 49.0196078,73.8320019 C62.7231147,73.8320019 73.8320019,62.7231147 73.8320019,49.0196078 Z M29.0486565,49.0196078 C29.0486565,37.989956 37.989956,29.0486565 49.0196078,29.0486565 C60.0492597,29.0486565 68.9905592,37.989956 68.9905592,49.0196078 C68.9905592,60.0492597 60.0492597,68.9905592 49.0196078,68.9905592 C37.989956,68.9905592 29.0486565,60.0492597 29.0486565,49.0196078 Z" id="Oval-13" sketch:type="MSShapeGroup"></path>
                <path d="M54.4662309,6.05180344 C54.4662309,2.70948469 51.7567462,0 48.4144275,0 C45.0721088,0 42.3626241,2.70948469 42.3626241,6.05180344 C42.3626241,9.39412218 45.0721088,12.1036069 48.4144275,12.1036069 C51.7567462,12.1036069 54.4662309,9.39412218 54.4662309,6.05180344 Z" id="Oval-8" sketch:type="MSShapeGroup"></path>
            </g>
        </g>
    </g>
</svg>