<?xml version="1.0" encoding="UTF-8" standalone="no"?>
<svg width="100px" height="100px" viewBox="0 0 100 100" version="1.1" xmlns="http://www.w3.org/2000/svg" xmlns:xlink="http://www.w3.org/1999/xlink" xmlns:sketch="http://www.bohemiancoding.com/sketch/ns">
    <!-- Generator: Sketch 3.2.2 (9983) - http://www.bohemiancoding.com/sketch -->
    <title>icon-candidate</title>
    <desc>Created with Sketch.</desc>
    <defs></defs>
    <g id="STYLEGUIDE" stroke="none" stroke-width="1" fill="none" fill-rule="evenodd" sketch:type="MSPage">
        <g id="icons" sketch:type="MSArtboardGroup" transform="translate(-293.000000, -228.000000)" fill="#3E4957">
            <g id="icon-candidate" sketch:type="MSLayerGroup" transform="translate(293.000000, 228.000000)">
                <g id="Oval-14-+-Rectangle-124" transform="translate(32.075472, 24.528302)" sketch:type="MSShapeGroup">
                    <ellipse id="Oval-14" cx="17.8895877" cy="12.2292103" rx="12.2292103" ry="12.2292103"></ellipse>
                    <rect id="Rectangle-124" x="0" y="28.3018868" width="34.940601" height="20.9643606"></rect>
                </g>
                <path d="M100,50 C100,22.3857625 77.6142375,0 50,0 C22.3857625,0 0,22.3857625 0,50 C0,77.6142375 22.3857625,100 50,100 C77.6142375,100 100,77.6142375 100,50 Z M5.66037736,50 C5.66037736,25.5119026 25.5119026,5.66037736 50,5.66037736 C74.4880974,5.66037736 94.3396226,25.5119026 94.3396226,50 C94.3396226,74.4880974 74.4880974,94.3396226 50,94.3396226 C25.5119026,94.3396226 5.66037736,74.4880974 5.66037736,50 Z" id="Oval-12" sketch:type="MSShapeGroup"></path>
            </g>
        </g>
    </g>
</svg>