<?xml version="1.0" encoding="UTF-8" standalone="no"?>
<svg width="100px" height="100px" viewBox="0 0 100 100" version="1.1" xmlns="http://www.w3.org/2000/svg" xmlns:xlink="http://www.w3.org/1999/xlink" xmlns:sketch="http://www.bohemiancoding.com/sketch/ns">
    <!-- Generator: Sketch 3.2.2 (9983) - http://www.bohemiancoding.com/sketch -->
    <title>icon-search</title>
    <desc>Created with Sketch.</desc>
    <defs></defs>
    <g id="STYLEGUIDE" stroke="none" stroke-width="1" fill="none" fill-rule="evenodd" sketch:type="MSPage">
        <g id="icons" sketch:type="MSArtboardGroup" transform="translate(-292.000000, -656.000000)" fill="#323A45">
            <path d="M392,751.735967 L360.844859,720.580824 C366.716937,713.733076 370.294388,704.855697 370.294388,695.147193 C370.294388,673.562033 352.732356,656 331.147198,656 C320.691886,656 310.856907,660.071308 303.455077,667.461094 C296.065292,674.856902 291.993984,684.691881 292.000007,695.147193 C292.000007,716.732354 309.562039,734.294387 331.147198,734.294387 C340.855701,734.294387 349.739102,730.716936 356.586849,724.844857 L387.74199,756 L392,751.735967 L392,751.735967 Z M331.147198,728.271742 C312.886539,728.271742 298.022651,713.413876 298.022651,695.147193 C298.016629,686.293905 301.461582,677.976632 307.719109,671.725126 C313.970615,665.467598 322.29391,662.022645 331.147198,662.022645 C349.407856,662.022645 364.271744,676.880511 364.271744,695.147193 C364.271744,713.407854 349.407856,728.271742 331.147198,728.271742 L331.147198,728.271742 Z" id="icon-search" sketch:type="MSShapeGroup"></path>
        </g>
    </g>
</svg>