<?xml version="1.0" encoding="UTF-8" standalone="no"?>
<svg width="145px" height="29px" viewBox="0 0 145 29" version="1.1" xmlns="http://www.w3.org/2000/svg" xmlns:xlink="http://www.w3.org/1999/xlink" xmlns:sketch="http://www.bohemiancoding.com/sketch/ns">
    <!-- Generator: Sketch 3.2.2 (9983) - http://www.bohemiancoding.com/sketch -->
    <title>logo</title>
    <desc>Created with Sketch.</desc>
    <defs></defs>
    <g id="1.-Home" stroke="none" stroke-width="1" fill="none" fill-rule="evenodd" sketch:type="MSPage">
        <g sketch:type="MSArtboardGroup" transform="translate(-20.000000, -44.000000)" id="SITE-HEADER" fill="#FFFFFF">
            <g sketch:type="MSLayerGroup" transform="translate(0.000000, 1.000000)">
                <g id="brand" transform="translate(0.000000, 27.000000)">
                    <g id="logo" transform="translate(20.000000, 15.000000)">
                        <g id="fec-logo" transform="translate(0.000000, 1.000000)" sketch:type="MSShapeGroup">
                            <path d="M7.91366906,20.0769231 L30.2158273,20.0769231 L30.2158273,26.025641 L7.91366906,26.025641 L7.91366906,20.0769231 Z" id="Fill-1"></path>
                            <path d="M5.03597122,23.0512821 L3.37814072,23.970359 L3.11233717,26.025641 L1.82197214,24.5384615 L0,24.8894359 L0.86015511,23.0512821 L0,21.2128308 L1.82197214,21.5641026 L3.11233717,20.0769231 L3.37814072,22.1322051 L5.03597122,23.0512821" id="Fill-2"></path>
                            <path d="M16.5467626,2.97435897 L30.2158273,2.97435897 L30.2158273,8.92307692 L16.5467626,8.92307692 L16.5467626,2.97435897 Z" id="Fill-3"></path>
                            <path d="M16.5467626,11.8974359 L30.2158273,11.8974359 L30.2158273,17.8461538 L16.5467626,17.8461538 L16.5467626,11.8974359 Z" id="Fill-4"></path>
                            <path d="M12.9496403,5.94871795 L11.2918098,6.86779487 L11.0260062,8.92307692 L9.7356412,7.43589744 L7.91366906,7.78687179 L8.77382417,5.94871795 L7.91366906,4.1105641 L9.7356412,4.46153846 L11.0260062,2.97435897 L11.2918098,5.02964103 L12.9496403,5.94871795" id="Fill-5"></path>
                            <path d="M5.03597122,5.94871795 L3.37814072,6.86779487 L3.11233717,8.92307692 L1.82197214,7.43589744 L0,7.78687179 L0.86015511,5.94871795 L0,4.1105641 L1.82197214,4.46153846 L3.11233717,2.97435897 L3.37814072,5.02964103 L5.03597122,5.94871795" id="Fill-6"></path>
                            <path d="M5.03597122,14.8717949 L3.37814072,15.7908718 L3.11233717,17.8461538 L1.82197214,16.3589744 L0,16.7099487 L0.86015511,14.8717949 L0,13.0333436 L1.82197214,13.3846154 L3.11233717,11.8974359 L3.37814072,13.9527179 L5.03597122,14.8717949" id="Fill-7"></path>
                            <path d="M12.9496403,14.8717949 L11.2918098,15.7908718 L11.0260062,17.8461538 L9.7356412,16.3589744 L7.91366906,16.7099487 L8.77382417,14.8717949 L7.91366906,13.0333436 L9.7356412,13.3846154 L11.0260062,11.8974359 L11.2918098,13.9527179 L12.9496403,14.8717949" id="Fill-8"></path>
                            <path d="M29.4964029,29 L30.9352518,29 L30.9352518,0 L29.4964029,0 L29.4964029,29 Z" id="Stroke-9"></path>
                        </g>
                        <text id="OpenFEC" sketch:type="MSTextLayer" font-family="Avenir" font-size="24" font-weight="260">
                            <tspan x="38" y="24">Open</tspan>
                            <tspan x="99.368" y="24" font-weight="686">FEC</tspan>
                        </text>
                    </g>
                </g>
            </g>
        </g>
    </g>
</svg>