<?xml version="1.0" encoding="utf-8"?>
<!-- Generator: Adobe Illustrator 18.1.1, SVG Export Plug-In . SVG Version: 6.00 Build 0)  -->
<!DOCTYPE svg PUBLIC "-//W3C//DTD SVG 1.1//EN" "http://www.w3.org/Graphics/SVG/1.1/DTD/svg11.dtd">
<svg version="1.1" id="Layer_1" xmlns:sketch="http://www.bohemiancoding.com/sketch/ns"
	 xmlns="http://www.w3.org/2000/svg" xmlns:xlink="http://www.w3.org/1999/xlink" x="0px" y="0px" viewBox="6.8 2 355.8 74.2"
	 enable-background="new 6.8 2 355.8 74.2" xml:space="preserve">
<title>logo</title>
<desc>Created with Sketch.</desc>
<g id="SITE-HEADER" transform="translate(-20.000000, -44.000000)" sketch:type="MSArtboardGroup">
	<g transform="translate(0.000000, 1.000000)" sketch:type="MSLayerGroup">
		<g id="brand" transform="translate(0.000000, 27.000000)">
			<g id="logo" transform="translate(20.000000, 15.000000)">
				<g id="fec-logo" transform="translate(0.000000, 1.000000)" sketch:type="MSShapeGroup">
					<path id="Fill-1" fill="#FFFFFF" d="M26.6,51.9H82v14.6H26.6L26.6,51.9L26.6,51.9z"/>
					<path id="Fill-2" fill="#FFFFFF" d="M19.4,59.4l-4.2,2.2l-0.7,5.2l-3.2-3.7l-4.5,1L9,59.6l-2.2-4.5l4.5,1l3.2-3.7l0.7,5.2
						L19.4,59.4"/>
					<path id="Fill-3" fill="#FFFFFF" d="M48,9.4h34v14.6H48V9.4z"/>
					<path id="Fill-4" fill="#FFFFFF" d="M48,31.5h34v14.6H48V31.5z"/>
					<path id="Fill-5" fill="#FFFFFF" d="M39,16.6l-4.2,2.2l-0.7,5.2l-3.2-3.7l-4.5,1l2.2-4.5l-2.2-4.5l4.5,1l3.2-3.7l0.7,5.2
						L39,16.6"/>
					<path id="Fill-6" fill="#FFFFFF" d="M19.4,16.6l-4.2,2.2l-0.7,5.2l-3.2-3.7l-4.5,1L9,16.9l-2.2-4.5l4.5,1l3.2-3.7l0.7,5.2
						L19.4,16.6"/>
					<path id="Fill-7" fill="#FFFFFF" d="M19.4,39l-4.2,2.2l-0.7,5.2l-3.2-3.7l-4.5,1L9,39.2l-2.2-4.5l4.5,1l3.2-3.7l0.7,5.2
						L19.4,39"/>
					<path id="Fill-8" fill="#FFFFFF" d="M39,39l-4.2,2.2l-0.7,5.2l-3.2-3.7l-4.5,1l2.2-4.5l-2.2-4.5l4.5,1l3.2-3.7l0.7,5.2L39,39"
						/>
					<path id="Stroke-9" fill="#FFFFFF" d="M80.2,74h3.5V2h-3.5V74z"/>
				</g>
				<g enable-background="new    ">
					<path fill="#FFFFFF" d="M148.3,39c0,3.2-0.5,6.2-1.7,8.9c-1,2.7-2.7,5-4.7,7c-2,2-4.2,3.5-7,4.7c-2.7,1-5.7,1.7-8.7,1.7
						s-6-0.5-8.7-1.7c-2.7-1-5-2.7-7-4.7c-2-2-3.5-4.2-4.7-7c-1-2.7-1.7-5.7-1.7-8.9s0.5-6.2,1.7-8.9c1-2.7,2.7-5,4.7-7
						s4.2-3.5,7-4.7c2.7-1,5.7-1.7,8.7-1.7c3,0,6,0.5,8.7,1.7s5,2.7,7,4.7s3.5,4.2,4.7,7C147.5,32.8,148.3,35.8,148.3,39z M143.6,39
						c0-2.5-0.5-4.7-1.2-7c-0.7-2.2-2-4.2-3.5-5.7c-1.5-1.7-3.2-3-5.5-4c-2.2-1-4.5-1.5-7.2-1.5s-5.2,0.5-7.2,1.5
						c-2.2,1-4,2.2-5.5,4c-1.5,1.7-2.7,3.7-3.5,5.7c-0.7,2.2-1.2,4.5-1.2,7s0.5,4.7,1.2,7c0.7,2.2,2,4.2,3.5,5.7
						c1.5,1.7,3.2,3,5.5,4c2.2,1,4.5,1.5,7.2,1.5s5.2-0.5,7.2-1.5c2.2-1,4-2.2,5.5-4c1.5-1.7,2.7-3.7,3.5-5.7
						C143.1,43.7,143.6,41.5,143.6,39z"/>
					<path fill="#FFFFFF" d="M155.2,32.3h4V37l0,0c0.7-1,1.5-1.7,2.2-2.5c1-0.7,1.7-1.2,2.7-1.7c1-0.5,2-0.7,3-1c1-0.2,2-0.2,3-0.2
						c2.2,0,4.2,0.2,6,1c1.7,0.7,3.5,1.7,4.7,3s2.2,3,3,4.7c0.7,1.7,1,3.7,1,6c0,2-0.2,4-1,6c-0.7,1.7-1.7,3.2-3,4.7
						c-1.2,1.2-3,2.2-4.7,3s-3.7,1-6,1c-1,0-2,0-3-0.2c-1-0.2-2-0.5-3-1s-2-1-2.7-1.7c-1-0.7-1.7-1.5-2.2-2.5l0,0v21.8h-4V32.3z
						 M180.8,46.2c0-1.5-0.2-3-0.7-4.5c-0.5-1.5-1.2-2.5-2.2-3.5c-1-1-2-1.7-3.2-2.2c-1.2-0.5-2.7-0.7-4.5-0.7
						c-1.7,0-3.2,0.2-4.5,0.7s-2.5,1.2-3.5,2.2s-1.7,2.2-2.2,3.5c-0.5,1.2-0.7,2.7-0.7,4.5s0.2,3,0.7,4.5c0.5,1.2,1.2,2.5,2.2,3.5
						s2.2,1.7,3.5,2.2s2.7,0.7,4.5,0.7c1.7,0,3-0.2,4.5-0.7c1.2-0.5,2.5-1.2,3.2-2.2c1-1,1.7-2.2,2.2-3.5S180.8,47.7,180.8,46.2z"/>
					<path fill="#FFFFFF" d="M194.4,47.2c0,1.5,0.5,2.7,1,4s1.2,2.2,2.2,3.2c1,1,2,1.5,3.2,2.2c1.2,0.5,2.5,0.7,4,0.7
						c2,0,4-0.5,5.5-1.5c1.5-1,2.7-2,3.5-3.5l3,2.5c-1.7,2-3.5,3.7-5.5,4.5c-2,1-4.2,1.5-6.5,1.5c-2,0-4-0.2-5.7-1
						c-1.7-0.7-3.2-1.7-4.5-3s-2.2-3-3-4.7s-1-3.7-1-6c0-2,0.2-4,1-6c0.7-1.7,1.7-3.2,3-4.7c1.2-1.2,2.7-2.2,4.5-3
						c1.7-0.7,3.5-1,5.5-1c2,0,4,0.5,5.7,1.2s3,1.7,4.2,3c1.2,1.2,2,2.7,2.5,4.5s1,3.5,1,5.5v1.7h-23.6V47.2z M213.3,44
						c0-2.7-0.7-4.7-2.5-6.5c-1.5-1.7-3.7-2.5-6.7-2.5c-1.2,0-2.5,0.2-3.7,0.7s-2.2,1.2-3.2,2s-1.5,1.7-2.2,3
						c-0.5,1-0.7,2.2-0.7,3.2H213.3z"/>
					<path fill="#FFFFFF" d="M228.7,32.3c0,0.7,0.2,1.5,0.2,2.2s0,1.5,0,2.2l0,0c0.5-0.7,1-1.5,1.7-2c0.7-0.7,1.5-1.2,2.2-1.7
						s1.7-0.7,2.7-1c1-0.2,1.7-0.5,2.7-0.5c3.5,0,6.2,1,7.9,2.7s2.5,4.5,2.5,8.2v17.6h-4V44.7c0-3-0.5-5.5-1.5-7.2s-3-2.5-6-2.5
						c-0.2,0-0.7,0-1.7,0.2s-2,0.5-3,1.2s-2,1.7-2.7,3.2s-1.2,3.5-1.2,6v14.4h-4V38.3c0-0.7,0-1.7,0-3c0-1.2-0.2-2.2-0.2-3.2h4.2
						V32.3z"/>
				</g>
				<g enable-background="new    ">
					<path fill="#FFFFFF" d="M263.7,60.1h-4.2V17.9h25.3v4h-21.1v14.4h19.6v4h-19.6V60.1z"/>
					<path fill="#FFFFFF" d="M296.7,56.1h22.6v4h-26.8V17.9h26.1v4h-21.8v14.4h20.6v4h-20.6V56.1z"/>
					<path fill="#FFFFFF" d="M362.5,53.4c-0.7,1-1.5,2-2.7,3c-1,1-2.2,1.7-3.7,2.5s-2.7,1.2-4.5,1.7c-1.5,0.5-3.2,0.5-5,0.5
						c-3.2,0-6-0.5-8.7-1.7c-2.7-1-5-2.7-7-4.7c-2-2-3.5-4.2-4.7-7c-1.2-2.7-1.7-5.7-1.7-8.9s0.5-6.2,1.7-8.9c1-2.7,2.7-5,4.7-7
						s4.2-3.5,7-4.7c2.7-1.2,5.7-1.7,8.7-1.7c2.7,0,5.2,0.5,7.9,1.5c2.7,1,5,2.7,6.7,5.2l-3.7,2.7c-0.5-0.7-1-1.2-1.7-2
						c-0.7-0.7-1.7-1.2-2.5-1.7c-1-0.5-2-1-3.2-1.2c-1-0.2-2.2-0.5-3.2-0.5c-2.7,0-5.2,0.5-7.2,1.5c-2.2,1-4,2.2-5.5,4
						c-1.5,1.7-2.7,3.7-3.5,5.7c-0.7,2-1.2,4.5-1.2,7s0.5,4.7,1.2,7c0.7,2.2,2,4.2,3.5,5.7c1.5,1.7,3.2,3,5.5,4
						c2.2,1,4.5,1.5,7.2,1.5c1,0,2.2,0,3.2-0.2s2.2-0.5,3.2-1c1-0.5,2-1.2,3-2s1.7-1.7,2.5-3L362.5,53.4z"/>
				</g>
			</g>
		</g>
	</g>
</g>
</svg>
